<svg viewBox="0 0 60 60" xmlns="http://www.w3.org/2000/svg" fill="white"><g data-name="Layer 1"><path d="M22 13a5 5 0 1 0 5 5 5.006 5.006 0 0 0-5-5Zm0 8a3 3 0 1 1 3-3 3.003 3.003 0 0 1-3 3Z"/><circle cx="22" cy="18" r="1"/><path d="M38 23a5 5 0 1 0-5-5 5.006 5.006 0 0 0 5 5Zm0-8a3 3 0 1 1-3 3 3.003 3.003 0 0 1 3-3Z"/><circle cx="38" cy="18" r="1"/><path d="m40.441 49.965 1.727 2.59a.999.999 0 0 0 .688.435A1.014 1.014 0 0 0 43 53a1.002 1.002 0 0 0 .64-.232c4.543-3.786 12.388-14.08 10.847-21.846-.678-3.417-3.032-5.906-6.968-7.434a10.9 10.9 0 0 0 .503-9.998c3.608-2.722 4.71-7.457 2.926-12.806A1 1 0 0 0 49.231.36c-1.372 1.646-3.983 2.147-7.007 2.726-1.277.245-2.64.507-3.998.888A14.555 14.555 0 0 0 30 2a14.555 14.555 0 0 0-8.226 1.974c-1.359-.38-2.72-.644-3.998-.888-3.024-.58-5.635-1.08-7.007-2.726a1 1 0 0 0-1.717.324C7.268 6.033 8.37 10.768 11.978 13.49a10.9 10.9 0 0 0 .503 9.998c-3.936 1.528-6.29 4.017-6.968 7.434-1.541 7.766 6.304 18.06 10.846 21.846A1.002 1.002 0 0 0 17 53a1.014 1.014 0 0 0 .144-.01.999.999 0 0 0 .688-.435l1.727-2.59a19.324 19.324 0 0 0 4.287 3.292c-.322.635-.901.762-2.136.934-1.842.258-4.364.61-5.658 4.493a1 1 0 1 0 1.896.632c.766-2.295 1.928-2.788 3.29-3.03l-1.133 2.267a1 1 0 0 0 1.79.894l1.818-3.637a3.21 3.21 0 0 0 1.942-1.696A11.86 11.86 0 0 0 30 55a11.86 11.86 0 0 0 4.345-.886 3.21 3.21 0 0 0 1.942 1.696l1.818 3.637a1 1 0 0 0 1.79-.894l-1.134-2.266c1.363.24 2.525.734 3.29 3.03a1 1 0 1 0 1.897-.633c-1.294-3.883-3.816-4.235-5.658-4.493-1.235-.173-1.814-.299-2.136-.934a19.324 19.324 0 0 0 4.287-3.292Zm12.084-18.653c1.273 6.412-5.144 15.268-9.329 19.18l-1.364-2.047-.03.02c.115-.138.232-.273.344-.415 4.816-6.08 6.667-14.187 5.196-22.478 2.93 1.276 4.68 3.197 5.183 5.74ZM30 22a3.003 3.003 0 0 0-3 3 1.008 1.008 0 0 0 .071.372l.018.044A8.912 8.912 0 0 1 22 27a9 9 0 1 1 7.2-14.4l.01.009a.992.992 0 0 0 1.58 0l.01-.009a9.007 9.007 0 1 1 2.111 12.816l.018-.044A1.008 1.008 0 0 0 33 25a3.003 3.003 0 0 0-3-3Zm.987 2.84L30 27.307l-.987-2.469a1 1 0 0 1 1.974 0ZM42.6 5.05c2.582-.494 5.05-.967 6.874-2.233.86 3.777-.02 6.926-2.458 8.9a10.944 10.944 0 0 0-11.942-4.314A22.826 22.826 0 0 1 42.6 5.05ZM30 4a14.12 14.12 0 0 1 5.643.881A11.854 11.854 0 0 0 30 9.738a11.854 11.854 0 0 0-5.643-4.857A14.12 14.12 0 0 1 30 4ZM10.526 2.817c1.825 1.266 4.292 1.739 6.874 2.233a22.826 22.826 0 0 1 7.526 2.353 10.944 10.944 0 0 0-11.942 4.314c-2.439-1.974-3.318-5.123-2.458-8.9Zm7.642 45.628-1.364 2.046c-4.185-3.911-10.602-12.767-9.33-19.179.505-2.543 2.254-4.464 5.184-5.74-1.471 8.291.38 16.398 5.196 22.478.112.142.229.277.344.415ZM30 53c-3.553 0-7.508-2.315-10.578-6.192a25.987 25.987 0 0 1-4.824-20.695 10.964 10.964 0 0 0 13.251 1.204l1.222 3.055a1 1 0 0 0 1.858 0l1.222-3.055a10.964 10.964 0 0 0 13.251-1.204 25.987 25.987 0 0 1-4.824 20.695C37.508 50.685 33.553 53 30 53Z"/><path d="M40 33a1 1 0 0 0-1 1 1 1 0 0 1-2 0 1 1 0 0 0-2 0 1 1 0 0 1-2 0 1 1 0 0 0-2 0 1 1 0 0 1-2 0 1 1 0 0 0-2 0 1 1 0 0 1-2 0 1 1 0 0 0-2 0 1 1 0 0 1-2 0 1 1 0 0 0-2 0 2.999 2.999 0 0 0 5 2.234 2.995 2.995 0 0 0 4 0 2.995 2.995 0 0 0 4 0 2.995 2.995 0 0 0 4 0A2.999 2.999 0 0 0 41 34a1 1 0 0 0-1-1ZM38 39a1 1 0 0 0-1 1 1 1 0 0 1-2 0 1 1 0 0 0-2 0 1 1 0 0 1-2 0 1 1 0 0 0-2 0 1 1 0 0 1-2 0 1 1 0 0 0-2 0 1 1 0 0 1-2 0 1 1 0 0 0-2 0 2.999 2.999 0 0 0 5 2.234 2.995 2.995 0 0 0 4 0 2.995 2.995 0 0 0 4 0A2.999 2.999 0 0 0 39 40a1 1 0 0 0-1-1ZM36 45a1 1 0 0 0-1 1 1 1 0 0 1-2 0 1 1 0 0 0-2 0 1 1 0 0 1-2 0 1 1 0 0 0-2 0 1 1 0 0 1-2 0 1 1 0 0 0-2 0 2.999 2.999 0 0 0 5 2.234 2.995 2.995 0 0 0 4 0A2.999 2.999 0 0 0 37 46a1 1 0 0 0-1-1Z"/></g></svg>