<svg xmlns="http://www.w3.org/2000/svg" xmlns:v="https://vecta.io/nano">
  <defs>
    <g id="logo-triangle">
      <path fill="currentColor" d="M1120.89 904.86L1054.71 798l-87.37-141.06c3.1-20.47 4.67-41.26 4.67-62.28 0-55.53-10.89-109.44-32.37-160.22-20.73-49.02-50.4-93.02-88.17-130.8-37.77-37.77-81.78-67.44-130.8-88.17-11.43-4.83-23.01-9.12-34.74-12.88L619.96 96.07 560.45 0l-59.51 96.08-65.97 106.52c-11.72 3.76-23.31 8.05-34.74 12.88-49.02 20.73-93.02 50.4-130.8 88.17-37.77 37.77-67.44 81.78-88.17 130.8-21.48 50.78-32.37 104.69-32.37 160.22 0 21.02 1.56 41.8 4.67 62.28L66.19 798.01 0 904.86h289.96c32.9 28.75 69.88 51.91 110.27 69 50.78 21.48 104.69 32.37 160.22 32.37s109.44-10.89 160.22-32.37a409.27 409.27 0 0 0 110.27-69h289.96zm-125.69-70H894.7c17.87-24.82 32.92-51.55 44.94-79.97l2.41-5.84 53.15 85.81zm-677.56 0c-44.01-44.49-75.89-101-90.24-164.18l252.73-408.04c25.76-6.21 52.66-9.53 80.33-9.53s54.56 3.31 80.33 9.53l252.73 408.04c-14.36 63.18-46.23 119.69-90.24 164.18H317.65zm580.88-289.04L754.8 313.78c76.27 52.88 129.97 136.01 143.72 232.04zM560.45 132.93l31.82 51.38c-10.54-.8-21.15-1.21-31.82-1.21s-21.28.41-31.82 1.21l31.82-51.38zM366.1 313.78L222.38 545.82c13.75-96.03 67.44-179.16 143.72-232.04zM178.85 749.04l2.41 5.84c12.02 28.43 27.07 55.16 44.94 79.97H125.7l53.15-85.81zm381.6 187.18c-51.11 0-99.59-11.25-143.12-31.37h286.25c-43.54 20.12-92.01 31.37-143.12 31.37z"/>
    </g>
    <g id="logo-eye">
      <path fill="currentColor" d="M215.91 0C91.84 0 0 110.62 0 110.62v.87s91.84 110.62 215.91 110.62 217.87-110.62 217.87-110.62v-.87S339.99 0 215.91 0zm.98 40.06c39.15 0 71 31.85 71 71s-31.85 71-71 71-71-31.85-71-71 31.85-71 71-71zM79.58 144.13c-16.56-11.79-30.12-23.71-39.89-33.07 9.77-9.37 23.33-21.28 39.89-33.07 20.29-14.45 41.08-25.92 61.78-34.07l2.21-.84c-16.55 17.84-26.68 41.73-26.68 67.99s10.12 50.14 26.68 67.99l-2.21-.84c-20.7-8.15-41.49-19.62-61.78-34.07zm275.01-.98c-20.72 14.71-41.9 26.38-62.95 34.7-.17.07-.34.13-.52.2 16.01-17.73 25.77-41.23 25.77-67s-9.75-49.27-25.77-67c20.81 8.17 41.75 19.62 62.26 34.05 16.7 11.75 30.43 23.61 40.37 32.97-9.64 9.08-22.91 20.54-39.16 32.08z"/>
      <circle fill="currentColor" cx="216.89" cy="111.06" r="51.33" transform="matrix(.707107 -.707107 .707107 .707107 -15 185.89)"/>
    </g>
    <g id="logo-txt">
      <path fill="currentColor" d="M82.5 243.85H0V8.35h82.5v235.5zm271.2 0H129V8.35h81.3v172.8h143.4v62.7zm254.4 0H383.4V8.35h81.3v172.8h143.4v62.7zm300.61-90.9c0 63.6-57.6 94.2-144.9 94.2-81.6 0-140.1-30.3-140.1-101.7V8.35h81.3v137.1c0 25.5 21.9 41.4 62.1 41.4s61.2-16.5 61.2-41.1V8.35h80.4v144.6zm378.3 90.9h-76.2v-127.2l-55.8 127.2h-68.4l-55.2-127.2v127.2h-76.5V8.35h105l61.2 141.3 64.2-141.3h101.7v235.5zm128.99 0h-82.5V8.35h82.5v235.5zm321 0h-80.4l-116.7-131.1v131.1h-77.4V8.35h84.6l113.1 128.1V8.35h76.8v235.5zm229.5-96.3l-28.2-57-8.4-21.3-9 21.6-29.7 56.7-26.4 52.8-21.9 43.5H1758l125.7-235.5h96.9l118.8 235.5h-86.7l-20.7-43.5-25.5-52.8zm387.9-80.1h-99.6v176.4h-82.2V67.45h-99.3V8.35h281.1v59.1zm108 176.4h-82.5V8.35h82.5v235.5zm214.47 11.65c-64.58 0-110.41-15.6-136.21-46.37-16.78-20-25.29-47.23-25.29-80.94 0-31.66 7.99-57.46 23.75-76.69 26.54-33.17 73.4-50.01 139.25-50.01 43.37 0 78.52 7.26 104.47 21.57 21.7 11.97 37.02 28.78 45.54 49.98 5.77 14.77 6.81 30.85 6.99 35.43l.23 5.72h-94.33l-.29-5.2c-.27-4.84-2.28-10.68-5-14.53-8.85-12.82-29.07-19.57-58.51-19.57s-51.58 7.63-60.76 22.05l-.06.1c-4.42 6.64-6.58 17.12-6.58 32.05s2.35 25.06 7.4 32.24l.07.1c9.22 13.71 31.17 21.57 60.24 21.57 31.04 0 51.01-6.16 59.37-18.32 2.72-3.85 4.16-8.59 4.44-14.55l.25-5.24h94.76l-.65 6.09c-1.77 16.51-4.78 29.06-9.2 38.38-10.59 22.18-27.4 38.27-51.4 49.22-24.96 11.39-57.17 16.92-98.47 16.92zm1.5-243c-62.35 0-106.32 15.46-130.71 45.94-14.14 17.26-21.29 40.71-21.29 69.76 0 31.04 7.64 55.9 22.71 73.87 23.62 28.16 66.61 42.44 127.79 42.44 75.96 0 120.43-19.02 139.94-59.87 3.29-6.93 5.79-16.58 7.46-28.73h-72.22c-.9 5.8-2.84 10.76-5.88 15.07-10.49 15.26-33.52 23.03-68.39 23.03s-57.86-9.37-69.33-26.38c-6.39-9.11-9.37-21.35-9.37-38.52s2.75-29.6 8.39-38.1c11.32-17.73 35.52-27.1 70.01-27.1 41.96 0 59.88 13.2 67.53 24.27 2.94 4.17 5.19 9.62 6.29 15.03h72.69c-.63-6.51-2.15-16.67-5.83-26.1-16.97-42.24-65.31-64.6-139.78-64.6zm329.7 243c-52.04 0-92.57-10.77-120.45-32.03-28.83-21.98-43.45-54.44-43.45-96.48 0-38.09 14.64-69.96 42.34-92.16 28.45-22.8 70.48-34.85 121.57-34.85s93.96 11.22 121.95 33.36c27.64 21.86 41.65 53.36 41.65 93.64 0 58.62-28.38 128.5-163.6 128.5zm0-244.5c-95.74 0-152.9 43.37-152.9 116 0 97.12 83.15 117.5 152.9 117.5 52.29 0 91.74-10.8 117.26-32.1 23.45-19.57 35.34-48.3 35.34-85.4s-12.61-65.35-37.47-85.01c-26-20.56-64.73-30.99-115.13-30.99zm0 184.2c-55.74 0-81.7-21.39-81.7-67.3s26.63-66.7 81.4-66.7 82.3 21.19 82.3 66.7-26.82 67.3-82 67.3zm-.3-123c-62.4 0-70.4 29.77-70.4 55.7 0 19 4.5 32 14.17 40.92 11.21 10.35 29.71 15.38 56.53 15.38 62.93 0 71-30.09 71-56.3 0-27.54-8.47-55.7-71.3-55.7zm280.6 179.7h-93.5V5.4h93.5v246.5zm-82.5-11h71.5V16.4h-71.5v224.5zm403.5 11H3521l-108.73-122.15V251.9h-88.4V5.4h92.58l105.12 119.06V5.4h87.8v246.5zm-83.43-11h72.43V16.4h-65.8v137.14L3411.49 16.4h-76.62v224.5h66.4V100.85l124.67 140.05z"/>
    </g>
    <g id="logo-sigle">
      <use href="#logo-triangle" />
      <use y="510" x="345" href="#logo-eye" />
    </g>
    <g id="arrow-left">
      <path fill="currentColor" d="M11.27.29l-.95 2.8s-.01.07 0 .11l.99 2.65c.07.2-.25.36-.51.26L7.86 4.98a15.97 15.97 0 0 0-3.23-.86L.27 3.4c-.34-.06-.36-.38-.02-.45l5.08-1.06c.65-.14 1.28-.32 1.88-.54L10.76.03c.26-.1.58.06.51.26z"/>
    </g>
    <g id="arrow-right">
      <path fill="currentColor" d="M.07 5.84l.95-2.8s.01-.07 0-.11L.03.28C-.04.08.28-.08.55.02l2.94 1.13a15.97 15.97 0 0 0 3.23.86l4.36.72c.34.06.36.38.02.45L6.02 4.24c-.65.14-1.28.32-1.88.54L.59 6.1c-.26.1-.58-.06-.51-.26z"/>
    </g>
    <g id="flower">
      <path fill="currentColor" d="M225.79 6.46c-.05-.11-.08-.23-.15-.34l-.2-.32c-.17-.21-.32-.41-.53-.58-.19-.18-.43-.33-.65-.47-.11-.07-.24-.13-.36-.19s-.24-.12-.37-.16c-.25-.09-.49-.18-.74-.22l-.35-.08-.34-.05c-.04 0-.08 0-.12-.01l-.61-.18a30.05 30.05 0 0 0-4.64-1.81l-.99-.29-1.05-.26-.54-.13-.56-.12-1.16-.24-5.15-.72-5.78-.3c-2.01-.03-4.09.03-6.2.16-5.76.35-11.02 1.2-15.38 2.16-2.18.48-4.14.99-5.84 1.49a85.15 85.15 0 0 0-4.27 1.39L159.6 7.76l-6.86 1.66c-2.45.55-5.04 1.09-7.74 1.55-3.98.67-7.84 1.11-11.38 1.29-3.47.22-6.62-.18-9.26-.6l-2.7-.48c-.47-.17-.92-.32-1.35-.43-.09-.05-.18-.09-.27-.14-1.14-.59-2.18-1.18-2.93-1.81-.76-.63-1.16-1.28-1.12-1.92.03-.65.46-1.28.94-1.8.13-.13.24-.26.37-.36.06-.05.12-.11.18-.16.07-.05.13-.1.2-.14a5.64 5.64 0 0 1 .81-.47 10.89 10.89 0 0 1 2.31-.29 15.26 15.26 0 0 1 3 .23 12.56 12.56 0 0 1 1.58.39c.51.17 1.01.38 1.44.62.43.25.79.54 1.02.85.24.32.36.66.35 1.04 0 .07-.02.14-.02.21v.1l-.04.11-.06.21-.09.21c-.05.14-.14.29-.22.43s-.18.27-.28.39c-.2.24-.42.43-.65.55s-.45.18-.73.19c-.57.02-1.28-.22-1.82-.54-.55-.32-.97-.71-1.18-1.07-.1-.18-.15-.36-.12-.5.02-.14.12-.26.28-.34a2.22 2.22 0 0 1 .6-.19c.22-.04.43-.05.63-.06.39-.02.71 0 .92 0l.33.02s-.1-.03-.3-.08-.5-.13-.92-.19c-.21-.03-.44-.06-.71-.06a3.53 3.53 0 0 0-.92.11c-.34.1-.68.31-.84.59-.17.28-.17.58-.11.87.14.58.54 1.13 1.16 1.64a4.88 4.88 0 0 0 1.16.7c.46.21 1.03.38 1.71.43.34.02.7.01 1.05-.04a4.37 4.37 0 0 0 .99-.28c.3-.12.57-.28.8-.44a3.87 3.87 0 0 0 .6-.52 4.52 4.52 0 0 0 .45-.55c.13-.19.25-.37.34-.58l.15-.3c.03-.11.07-.21.1-.32l.05-.16.03-.17c.01-.11.04-.23.04-.34.02-.63-.22-1.28-.67-1.81-.45-.54-1.07-.96-1.73-1.27-1.32-.64-2.76-.9-4.05-1a14.39 14.39 0 0 0-3.49.15c-1.01.17-1.82.44-2.41.72a6.59 6.59 0 0 0-1.08.37c-.09.04-.19.09-.29.13-.1.05-.19.1-.28.16-.2.11-.36.23-.55.35-.35.25-.71.54-1.03.89s-.59.76-.73 1.24c-.14.47-.11 1 .09 1.51s.55.99.98 1.42a8.71 8.71 0 0 0 .55.49c-.05 0-.09-.01-.09-.01a3.81 3.81 0 0 0 .11.03c.78.64 1.71 1.2 2.69 1.71 1.82.93 3.67 1.64 5.32 2.27l4.35 1.69.39.17c.4.29.82.59 1.28.89.59.39 1.24.78 2.02 1.14.41.19.79.31 1.2.46l.61.22.31.11.32.1 1.31.39c.44.13.91.22 1.38.33l.71.16.73.13.74.13.37.06.38.05c2.01.29 4.15.37 6.31.32 2.94-.08 5.75-.44 8.3-.95 2.56-.51 4.88-1.15 6.96-1.82l9.71-3.33 4.41-1.13 5.74-1.52 6.78-1.84c1.19-.34 2.44-.65 3.71-.99l3.86-1.04 2.84-.78 2.78-.74 5.23-1.33c1.68-.38 3.29-.68 4.82-.86a31.13 31.13 0 0 1 4.3-.23c2.36.05 4.3.4 5.69.74.08.03.17.06.25.1.62.26 1.22.64 1.55 1.14.1.12.15.26.22.39.02.07.05.14.08.21s.03.15.05.22c.06.3.08.63.03.97-.12.93-.61 1.81-1.21 2.51-.29.36-.64.65-.96.92-.34.25-.66.47-.95.62-.73.12-1.79.18-2.96.05-.62-.08-1.29-.16-1.91-.3-.31-.07-.61-.15-.88-.25-.14-.04-.25-.1-.38-.15-.05-.03-.1-.06-.16-.09l-.08-.04-.06-.05c-.27-.18-.42-.35-.5-.58-.08-.22-.05-.49.04-.75.2-.53.67-1 1.17-1.26a2.06 2.06 0 0 1 .77-.23c.03 0 .06 0 .1-.01h.09.18c.11.02.23.03.33.06l.26.08.18.08a2.33 2.33 0 0 1 .16.07l-.08-.11a3.09 3.09 0 0 0-.11-.14c-.06-.05-.12-.11-.2-.18s-.2-.12-.32-.19c-.07-.03-.14-.06-.22-.08-.04-.01-.08-.03-.13-.04-.05 0-.09-.02-.14-.03-.38-.09-.87-.1-1.35 0-.97.18-1.94.69-2.55 1.49-.3.4-.51.89-.44 1.44.05.27.14.56.34.82l.15.2.19.18a2.44 2.44 0 0 0 .43.33l.16.1.17.09c.11.06.22.11.34.17.23.08.46.18.69.24.46.13.92.21 1.35.26l.64.06c.21 0 .41.01.61.02h.58c.19 0 .37-.02.55-.02l.55-.06.26-.03c.09-.02.17-.03.25-.05l.47-.09.43-.12a6.7 6.7 0 0 0 1.29-.52c.4-.06.88-.18 1.4-.36.51-.19 1.09-.44 1.62-.8 1.06-.7 2.03-1.77 2.21-3.09.08-.48 0-.97-.17-1.43zm-5.99-2.58c.25.04.5.07.73.1.02 0 .04.01.06.02a2.11 2.11 0 0 0-.26.02 7.89 7.89 0 0 0-.52-.14zm-90.17 9.55c.43.04.86.09 1.31.11.22.01.45.03.67.04l.69.02.7.01.69-.01c3.69-.03 7.75-.39 11.88-1.08 2.8-.48 5.45-1.08 7.91-1.72s4.72-1.32 6.79-1.97c4.12-1.31 7.46-2.49 9.77-3.29 1.22-.3 2.71-.66 4.45-1.02a131.26 131.26 0 0 1 5.91-1.09c4.37-.71 9.55-1.35 15.12-1.69 2.05-.12 4.05-.2 5.98-.22s3.8.02 5.57.11a76.7 76.7 0 0 1 4.99.44l1.14.16.55.08.54.09 1.04.18c.21.04.41.09.61.13l-.91-.13c-2.71-.36-6.04-.54-9.71-.37-1.83.1-3.75.26-5.7.53s-3.95.61-5.96 1.04c-2.73.58-5.3 1.25-7.7 1.93s-4.62 1.38-6.66 2.03l-9.74 3.16-4.47.92-5.9 1.06-7.02 1.23c-2.49.41-5.11.8-7.83 1.07-4 .4-7.85.47-11.23.04-.21-.03-.42-.05-.63-.08s-.41-.07-.61-.1c-.41-.06-.8-.15-1.2-.22-.38-.08-.78-.17-1.13-.26s-.69-.2-1.02-.31c-1.32-.47-2.49-1.08-3.59-1.62-.01 0-.03-.01-.04-.02 1.08.24 2.25.47 3.52.65.41.06.82.12 1.25.15zm76.39-9.66c-1.78.32-3.61.74-5.46 1.19l-2.82.7-2.88.77-3.88 1.07-3.68 1.08-6.63 2.12-2.91.98-2.6.9-4.17 1.48-10.16 2.61a83.57 83.57 0 0 1-6.84 1.47c-2.46.41-5.1.7-7.82.78-2 .05-3.96 0-5.81-.23l-.35-.03a3.98 3.98 0 0 1-.34-.05c-.23-.03-.45-.07-.68-.1a13.46 13.46 0 0 1-.67-.1c-.22-.04-.44-.09-.65-.13-.43-.09-.87-.16-1.28-.26l-1.23-.31-.3-.08-.29-.09-.58-.18c-.38-.12-.79-.23-1.1-.35-.52-.2-1.01-.45-1.5-.7l.59.12.68.12c.45.08.92.14 1.39.21l1.44.15c.97.09 1.97.13 2.98.15a54.48 54.48 0 0 0 6.21-.28c2.86-.29 5.55-.74 8.06-1.23s4.83-1.03 6.96-1.53l3.05-.73.72-.18.69-.18 1.32-.36 4.3-1.29c2.46-.52 6-1.36 10.21-2.44 4.22-1.07 9.09-2.39 14.39-3.51a121.2 121.2 0 0 1 5.73-1.07c1.86-.3 3.68-.51 5.42-.69a90.29 90.29 0 0 1 3.12-.2c-.85.11-1.72.25-2.6.4zM111.03 5.5c-.32-.35-.68-.64-1.03-.89l-.55-.35c-.1-.05-.19-.11-.28-.16l-.29-.13c-.38-.17-.75-.28-1.08-.37-.59-.27-1.4-.55-2.41-.72a14.39 14.39 0 0 0-3.49-.15c-1.29.1-2.72.36-4.05 1-.66.32-1.28.74-1.73 1.27s-.7 1.18-.67 1.81a1.86 1.86 0 0 0 .04.34l.03.17.05.16.1.32.15.3c.1.21.21.39.34.58a4.52 4.52 0 0 0 .45.55c.17.18.37.35.6.52.23.16.5.31.8.44a4.37 4.37 0 0 0 .99.28c.35.06.71.07 1.05.04.68-.05 1.25-.22 1.71-.43.47-.21.84-.45 1.16-.7.62-.51 1.03-1.06 1.16-1.64.06-.29.06-.59-.11-.87-.16-.29-.5-.5-.84-.59-.34-.1-.65-.12-.92-.11-.27 0-.51.03-.71.06-.41.06-.71.14-.92.19l-.3.08s.11 0 .33-.02h.92c.2 0 .41.02.63.06s.44.09.6.19c.16.09.26.21.28.34.03.14-.02.31-.12.5-.21.37-.64.76-1.18 1.07s-1.25.56-1.82.54a1.47 1.47 0 0 1-.73-.19c-.23-.12-.46-.31-.65-.55-.1-.12-.19-.25-.28-.39a2.19 2.19 0 0 1-.22-.43l-.09-.21-.06-.21-.03-.11v-.1c-.02-.07-.03-.14-.04-.21-.01-.38.11-.72.35-1.04s.6-.61 1.02-.85c.43-.25.92-.45 1.44-.62a12.56 12.56 0 0 1 1.58-.39 15.26 15.26 0 0 1 3-.23c.91.02 1.7.14 2.31.29.27.13.55.28.81.47.06.05.13.09.2.14l.18.16c.12.1.24.24.37.36.48.52.91 1.15.94 1.8.04.65-.36 1.29-1.12 1.92-.75.63-1.79 1.23-2.93 1.81l-.27.14c-.43.11-.88.26-1.35.43l-2.7.48c-2.63.42-5.79.83-9.26.6-3.55-.18-7.4-.61-11.38-1.29-2.7-.47-5.3-1-7.74-1.55-2.45-.55-4.74-1.13-6.86-1.66L56.2 5.18c-1.15-.4-2.58-.89-4.27-1.39-1.7-.5-3.66-1.01-5.84-1.49C41.73 1.34 36.46.49 30.71.14c-2.12-.1-4.2-.16-6.21-.14a74.86 74.86 0 0 0-5.78.3 59.24 59.24 0 0 0-5.15.72l-1.16.24-.56.12c-.18.04-.36.09-.54.13l-1.05.26a23.31 23.31 0 0 0-.99.29c-1.95.58-3.49 1.23-4.64 1.81-.22.06-.42.12-.61.18-.04 0-.08 0-.12.01-.11.02-.23.03-.34.05-.12.03-.23.05-.35.08-.25.05-.48.14-.74.22a2.43 2.43 0 0 0-.37.16c-.12.06-.25.12-.36.19-.22.14-.46.29-.65.47-.21.17-.37.37-.53.58l-.2.32c-.07.11-.1.22-.15.34-.17.46-.24.95-.17 1.43.18 1.32 1.16 2.4 2.21 3.09.52.36 1.1.61 1.62.8.53.18 1.01.3 1.4.36a6.7 6.7 0 0 0 1.29.52l.43.12.47.09c.08.02.17.03.25.05.09 0 .17.02.26.03l.55.06c.18 0 .36.02.55.02s.38.02.58 0c.2 0 .4-.01.61-.02l.64-.06c.44-.05.89-.13 1.35-.26.23-.06.46-.16.69-.24.11-.05.23-.11.34-.17l.17-.09.16-.1c.15-.1.3-.2.43-.33l.19-.18.15-.2c.2-.26.29-.55.34-.82.07-.55-.14-1.04-.44-1.44-.61-.8-1.59-1.3-2.55-1.49-.48-.09-.97-.08-1.35 0l-.14.03c-.04.01-.08.03-.13.04l-.22.08c-.12.07-.24.13-.32.19-.08.07-.15.13-.2.18a3.09 3.09 0 0 0-.11.14l-.08.11s.05-.02.16-.07c.05-.02.11-.05.18-.08.08-.02.17-.05.26-.08.1-.03.21-.04.33-.06h.18.09c.03 0 .06 0 .1.01a1.89 1.89 0 0 1 .77.23c.5.26.97.73 1.17 1.26.1.26.12.53.04.75s-.23.4-.5.58l-.06.05-.08.04c-.05.03-.1.06-.16.09-.13.05-.24.11-.38.15-.27.1-.57.18-.88.25-.62.15-1.29.22-1.91.3-1.17.14-2.23.07-2.96-.05-.29-.16-.62-.37-.95-.62-.32-.26-.67-.56-.96-.92-.6-.7-1.09-1.58-1.21-2.51-.06-.34-.03-.67.03-.97.02-.07.02-.15.05-.22s.05-.14.08-.21c.07-.13.12-.27.22-.39.33-.51.93-.88 1.55-1.14.08-.04.17-.07.25-.1 1.39-.34 3.33-.69 5.69-.74a31.13 31.13 0 0 1 4.3.23c1.53.18 3.14.48 4.82.86s3.42.84 5.23 1.33l2.78.74 2.84.78 3.86 1.04 3.71.99 6.78 1.84 5.74 1.52 4.41 1.13 9.71 3.33c2.07.67 4.4 1.31 6.96 1.82a49.5 49.5 0 0 0 8.3.95c2.16.05 4.3-.03 6.31-.32l.38-.05.37-.06.74-.13.73-.13c.24-.05.47-.11.71-.16l1.38-.33 1.31-.39.32-.1.31-.11.61-.22c.4-.15.79-.28 1.2-.46.78-.36 1.43-.75 2.02-1.14.45-.3.87-.6 1.28-.89.13-.06.25-.11.39-.17 1.2-.51 2.69-1.06 4.35-1.69s3.5-1.34 5.32-2.27c.98-.51 1.91-1.07 2.69-1.71l.11-.03s-.04 0-.09.01c.19-.16.38-.32.55-.49.43-.43.78-.91.98-1.42s.23-1.04.08-1.51c-.14-.48-.41-.89-.73-1.24zM10.68 2.6l1.04-.18.54-.09c.18-.03.37-.05.55-.08l1.14-.16a76.7 76.7 0 0 1 4.99-.44c1.77-.09 3.63-.12 5.57-.11 1.93.02 3.94.1 5.98.22 5.57.34 10.75.98 15.12 1.69 2.19.36 4.17.73 5.91 1.09a124.4 124.4 0 0 1 4.45 1.02l9.77 3.29c2.07.65 4.33 1.33 6.79 1.97a98.82 98.82 0 0 0 7.91 1.72c4.12.7 8.18 1.05 11.88 1.08l.69.01.7-.01c.23 0 .46 0 .69-.02.23-.01.45-.03.67-.04.45-.02.88-.07 1.31-.11s.84-.1 1.25-.15c1.27-.18 2.44-.41 3.52-.65-.01 0-.03.01-.04.02-1.09.54-2.27 1.15-3.59 1.62-.33.11-.67.22-1.02.31s-.75.17-1.13.26c-.39.07-.79.16-1.2.22l-.61.1c-.21.03-.42.05-.63.08-3.38.43-7.24.37-11.23-.04-2.72-.27-5.35-.66-7.83-1.07l-7.02-1.23-5.9-1.06-4.47-.92-9.74-3.16-6.66-2.03c-2.4-.68-4.97-1.35-7.7-1.93-2.01-.43-4.01-.77-5.96-1.04s-3.87-.43-5.7-.53c-3.67-.17-7 .01-9.71.37l-.91.13.61-.13zM5.66 4.03c-.08 0-.17-.01-.26-.02.02 0 .04-.01.06-.02l.73-.1c-.18.05-.36.09-.52.14zM93.1 17.01c-.31.12-.73.23-1.1.35l-.58.18-.29.09-.3.08-1.23.31c-.42.1-.85.17-1.28.26-.22.04-.43.09-.65.13-.22.03-.45.06-.67.1l-.68.1a3.98 3.98 0 0 1-.34.05l-.35.03c-1.85.22-3.81.28-5.81.23-2.72-.07-5.36-.37-7.82-.78s-4.76-.93-6.84-1.47L55 14.06l-4.17-1.48-2.6-.9-2.91-.98-6.63-2.12c-1.17-.38-2.42-.72-3.68-1.08l-3.88-1.07-2.88-.77-2.82-.7c-1.86-.45-3.68-.86-5.46-1.19-.88-.16-1.75-.29-2.6-.4 1.01.04 2.04.1 3.12.2 1.74.17 3.56.38 5.42.69 1.86.3 3.78.66 5.73 1.07 5.3 1.13 10.17 2.44 14.39 3.51 4.21 1.08 7.75 1.92 10.21 2.44 1.16.37 2.61.81 4.3 1.29a54.71 54.71 0 0 1 1.32.36l.69.18.72.18 3.05.73c2.13.5 4.45 1.04 6.96 1.53s5.2.94 8.06 1.23c2.1.21 4.19.31 6.21.28 1.01-.02 2.01-.06 2.98-.15.49-.04.96-.1 1.44-.15.47-.07.94-.12 1.39-.21l.68-.12.59-.12c-.48.25-.98.5-1.5.7z"/>
    </g>
    <g id="flower-line">
      <use y="7" x="0" href="./assets/img/sprites.svg#arrow-left" />
      <circle cx="16" cy="10" r="2" fill="currentColor" />
      <line x1="16" y1="10" x2="100" y2="10" stroke="currentColor" />
      <circle cx="100" cy="10" r="3" fill="currentColor" />
      <use x="113" href="./assets/img/sprites.svg#flower" />
      <circle cx="350" cy="10" r="3" fill="currentColor" />
      <line x1="350" y1="10" x2="433" y2="10" stroke="currentColor" />
      <circle cx="433" cy="10" r="2" fill="currentColor" />
      <use y="7" x="438" href="./assets/img/sprites.svg#arrow-right" />
    </g>
    <g id="triangle">
      <path fill="currentColor" d="M0 0l95 40L0 80z"/>
    </g>
    <g id="twitter-x">
      <circle cx="12" cy="12" r="12" fill="currentColor"/>
      <text x="12" y="16" font-size="14" text-anchor="middle" fill="white" font-family="Arial" font-weight="bold">X</text>
    </g>
    <g id="telegram">
      <circle cx="12" cy="12" r="12" fill="currentColor"/>
      <text x="12" y="16" font-size="14" text-anchor="middle" fill="white" font-family="Arial" font-weight="bold">T</text>
    </g>
    <g id="discord">
      <path fill="currenyColor" d="M107.7,8.07A105.15,105.15,0,0,0,81.47,0a72.06,72.06,0,0,0-3.36,6.83A97.68,97.68,0,0,0,49,6.83,72.37,72.37,0,0,0,45.64,0,105.89,105.89,0,0,0,19.39,8.09C2.79,32.65-1.71,56.6.54,80.21h0A105.73,105.73,0,0,0,32.71,96.36,77.7,77.7,0,0,0,39.6,85.25a68.42,68.42,0,0,1-10.85-5.18c.91-.66,1.8-1.34,2.66-2a75.57,75.57,0,0,0,64.32,0c.87.71,1.76,1.39,2.66,2a68.68,68.68,0,0,1-10.87,5.19,77,77,0,0,0,6.89,11.1A105.25,105.25,0,0,0,126.6,80.22h0C129.24,52.84,122.09,29.11,107.7,8.07ZM42.45,65.69C36.18,65.69,31,60,31,53s5-12.74,11.43-12.74S54,46,53.89,53,48.84,65.69,42.45,65.69Zm42.24,0C78.41,65.69,73.25,60,73.25,53s5-12.74,11.44-12.74S96.23,46,96.12,53,91.08,65.69,84.69,65.69Z"/>
    </g>
    <g id ="verus" viewBox="0 0 209 213">   
      <path  fill="#fff" fill-rule="evenodd"  clip-rule="evenodd" stroke-linejoin="round" stroke-miterlimit="2" d="M104.167 3.962c57.491 0 104.166 46.676 104.166 104.167s-46.675 104.167-104.166 104.167S0 165.62 0 108.129 46.676 3.962 104.167 3.962zm-51.07 37.68c3.934-3.368 9.453-6.135 14.251-4.187 8.629 3.504 31.811 50.24 31.811 50.24s32.425-46.067 44.072-50.268c3.973-1.433 9.42 1.087 13.574 4.193 14.581 10.901 16.087 26.109 14.827 30.328-1.585 5.304-82.129 107.501-82.129 107.501-2.409-.982-50.133-89.559-52.719-104.715-2.471-14.484 5.938-24.325 16.313-33.092z"/>
    </g>
    <g id="dextools">
      <circle cx="12" cy="12" r="12" fill="currentColor"/>
      <text x="12" y="16" font-size="14" text-anchor="middle" fill="white" font-family="Arial" font-weight="bold">D</text>
    </g>
    <g id="ethscan">
      <path fill="currentColor" d="M10.08 18.68a1.29 1.29 0 0 1 1.28-1.28h2.15a1.31 1.31 0 0 1 1.3 1.3h0v8.11a11.55 11.55 0 0 1 .9-.23c.47-.13.83-.55.83-1.05V15.47a1.31 1.31 0 0 1 1.3-1.3h2.15a1.31 1.31 0 0 1 1.3 1.3v9.34l1.05-.45c.4-.17.65-.55.65-1V12.22c0-.7.58-1.3 1.28-1.3h2.15c.7 0 1.28.58 1.28 1.3v9.19c1.85-1.35 3.75-2.98 5.25-4.93.45-.58.58-1.33.33-2.03-2.75-7.91-11.41-12.12-19.31-9.36C6.06 7.84 1.86 16.5 4.61 24.42c.3.9.7 1.75 1.18 2.58.38.65 1.08 1.03 1.83.95a44.78 44.78 0 0 0 1.53-.15c.55-.05.95-.53.95-1.08v-8.04h0zm-.05 13.02c6.78 4.93 16.26 3.43 21.19-3.35 1.88-2.6 2.9-5.73 2.9-8.94 0-.35-.03-.7-.05-1.05-5.53 8.29-15.76 12.17-24.04 13.34h0z"/>
    </g>
    <g id="uniswap">
      <path fill="currentColor" d="M15.48 9.36c-.4-.06-.42-.08-.23-.09.36-.06 1.2.02 1.79.15 1.37.32 2.61 1.16 3.92 2.63l.34.4.49-.08c2.11-.34 4.28-.08 6.09.76.49.23 1.28.69 1.37.8.04.04.09.29.13.53.13.89.08 1.56-.21 2.07-.15.29-.15.36-.06.61a.57.57 0 0 0 .51.32c.46 0 .93-.72 1.16-1.73l.09-.4.17.19c.97 1.09 1.73 2.59 1.85 3.66l.04.29-.17-.25c-.29-.44-.55-.72-.91-.97-.65-.44-1.33-.57-3.14-.67-1.64-.09-2.57-.23-3.48-.53-1.56-.51-2.36-1.18-4.21-3.64-.82-1.09-1.33-1.68-1.85-2.17-1.12-1.09-2.24-1.66-3.71-1.88h0zm14.19 2.42c.04-.72.13-1.2.34-1.64l.17-.32c.02 0-.02.13-.08.29-.15.42-.17 1.01-.08 1.68.13.86.19.97 1.1 1.9l1.1 1.22.32.42-.32-.3c-.4-.38-1.31-1.1-1.52-1.2-.13-.08-.15-.08-.25.02-.08.08-.09.19-.09.74-.02.86-.13 1.39-.42 1.94-.15.29-.17.23-.04-.09.09-.25.11-.36.11-1.18 0-1.66-.19-2.06-1.35-2.72-.29-.17-.78-.42-1.07-.55l-.51-.25c.04-.04 1.16.29 1.6.48.67.27.78.29.86.27.06-.06.1-.21.12-.69h0zm-13.41 2.84c-.8-1.1-1.31-2.82-1.2-4.09l.04-.4.19.04c.34.06.93.29 1.22.46.76.46 1.1 1.09 1.43 2.65.09.46.23.99.29 1.16.09.29.46.95.76 1.37.21.3.08.46-.4.42-.72-.08-1.7-.74-2.32-1.6h0zM28.7 22.9c-3.77-1.52-5.1-2.84-5.1-5.07l.02-.59c.02 0 .15.11.32.25.76.61 1.62.88 4 1.22 1.39.21 2.19.36 2.91.61 2.3.76 3.73 2.32 4.07 4.44a7.94 7.94 0 0 1-.11 2.38c-.13.48-.51 1.35-.61 1.37-.02 0-.06-.09-.06-.25-.04-.8-.44-1.56-1.1-2.15-.8-.68-1.83-1.2-4.34-2.21h0zm-2.67.63c-.04-.29-.13-.65-.19-.8l-.09-.29.17.21c.25.29.44.63.61 1.1.13.36.13.48.13 1.07s-.02.7-.13 1.03a3.5 3.5 0 0 1-.8 1.28c-.69.7-1.58 1.09-2.86 1.26l-1.45.11c-1.43.08-2.38.23-3.24.53-.11.04-.23.08-.25.06-.04-.04.55-.38 1.03-.61.67-.32 1.35-.49 2.86-.76l1.7-.34c1.89-.59 2.82-2.05 2.51-3.85h0zm1.73 3.06c-.49-1.09-.61-2.11-.34-3.09.04-.09.08-.19.11-.19s.15.06.27.13c.23.15.7.42 1.92 1.09 1.54.84 2.42 1.49 3.03 2.23.53.65.86 1.39 1.01 2.3.09.51.04 1.75-.09 2.27-.42 1.62-1.37 2.91-2.76 3.66l-.4.19c-.02 0 .06-.19.17-.42a3.77 3.77 0 0 0 .17-2.95c-.21-.65-.65-1.43-1.52-2.74l-1.56-2.47h0zm-14.18 5.83c1.41-1.18 3.14-2.02 4.74-2.28.69-.11 1.83-.08 2.46.09 1.01.27 1.92.84 2.4 1.54.46.69.67 1.28.88 2.59l.19 1.16c.15.69.46 1.22.84 1.5.59.44 1.62.46 2.63.08.17-.06.32-.11.32-.09.04.04-.48.38-.82.55a2.68 2.68 0 0 1-1.37.32c-.91 0-1.7-.48-2.32-1.43-.13-.19-.4-.74-.63-1.26-.67-1.54-1.01-2-1.79-2.51-.69-.44-1.56-.53-2.23-.21-.88.42-1.1 1.54-.49 2.23.25.29.7.51 1.09.57.7.09 1.31-.46 1.31-1.16 0-.46-.17-.72-.63-.93-.61-.27-1.28.04-1.26.63 0 .25.11.4.36.51q.15.08.04.06c-.55-.11-.69-.8-.25-1.24.53-.53 1.66-.3 2.04.44.15.3.17.91.04 1.3-.32.84-1.24 1.28-2.17 1.03-.63-.17-.89-.34-1.66-1.12-1.33-1.37-1.85-1.64-3.75-1.92l-.36-.06.4-.38h0z"/>
      <path fill="currentColor" d="M3.56 1.78l11.62 14.23c.29.38.17.74-.3 1.01-.27.15-.82.3-1.09.3a1.35 1.35 0 0 1-.91-.4c-.17-.17-.91-1.26-2.59-3.86L7.91 9.39q-.08-.04 2.25 4.11l1.94 3.66c0 .25-.08.38-.38.72-.51.57-.74 1.22-.91 2.57-.19 1.5-.7 2.57-2.17 4.38-.86 1.07-.99 1.26-1.2 1.7-.27.53-.34.84-.38 1.52-.04.72.04 1.18.25 1.87.19.61.4 1.01.91 1.79.44.69.7 1.2.7 1.39 0 .15.04.15.72 0 1.64-.38 2.99-1.03 3.73-1.83.46-.49.57-.76.57-1.45 0-.44-.02-.53-.13-.8-.19-.42-.55-.76-1.33-1.3-1.03-.7-1.47-1.28-1.58-2.04-.09-.65.02-1.09.59-2.28.59-1.24.74-1.75.84-3.01.06-.8.15-1.12.38-1.37.25-.27.46-.36 1.05-.44.97-.13 1.6-.38 2.09-.86.44-.4.63-.8.65-1.39l.02-.44-.25-.27C15.37 14.6 2.97.96 2.92.96c-.02 0 .29.36.65.82h0zm5.85 27.08c.21-.36.09-.82-.25-1.05-.32-.21-.82-.11-.82.17 0 .08.04.15.15.19.17.09.19.19.06.4s-.13.4.04.53c.27.21.63.09.82-.25h0zm7.71-10.02c-.46.13-.89.63-1.03 1.12-.08.3-.04.86.09 1.03.21.27.4.34.93.34 1.05 0 1.94-.46 2.04-1.01.09-.46-.3-1.09-.86-1.37-.29-.15-.88-.21-1.18-.12h0zm1.22.95c.15-.23.09-.48-.19-.65-.51-.32-1.3-.06-1.3.44 0 .25.4.51.78.51.25 0 .59-.15.7-.31h0z" fill-rule="evenodd"/>
    </g>
    <g id="poloniex">
      <path fill="currentColor" d="M18.4 26.4V12.47L6.33 19.44 18.4 26.4zm-.54-14.92l-5.24-3.03-6.33-3.67-.01 7.31-.01 6.08 11.59-6.69zm7.48-3.02l-5.21 3.01 11.49 6.63.01-5.98V4.81l-6.3 3.63.01.02zm-5.82 3.96v14.64l6.13 3.53-.02.03 5.97 3.45v-7.32l.02-7.31v-.04l-12.1-6.98zM6.27 20.71l-.01 6.01-.01 7.32 6.35-3.65 5.23-3.01-11.56-6.67z"/>
    </g>
    <g id="coin-gecko">
      <path fill="currentColor" d="M55.2 6.7C28.3 6.6 6.8 28.4 6.8 55.3c0 26.8 21.9 48.3 48.1 48.6 27 .1 49-21.8 49-48.4-.1-27.1-21.8-48.8-48.7-48.8zm25.9 54c1.8-.8 3.6-1.5 5.2-2.5.1-.1.3-.3.5-.1-.1.5-.6.5-.9.8-4.9 3.3-10.4 5.3-16.2 6.5-3.3.6-6.6.6-9.9-.5-1.6-.5-3-1.5-3.8-2.7 3.3 2 7 2.3 10.7 2 5-.3 9.8-1.6 14.4-3.5zm-3.1-8c0-1 .8-1.9 1.8-1.9 1.1-.1 2 .8 2 1.8 0 1.1-.9 2-1.9 2-1.1 0-1.9-.7-1.9-1.9zm-20.5-8.6c-.1 4.8-3.9 8.8-8.8 8.8-4.7-.1-8.6-3.9-8.6-8.8 0-4.7 3.9-8.6 8.8-8.6s8.6 3.8 8.6 8.6zM73 96.5c-3 1.3-6.1 2.3-9.3 2.8-.1 0-.2.2-.5.1v-.1c-.8-4.8.4-9.4 2.4-13.8 2.4-5.3 5.8-9.9 9.6-14.3 3.3-3.7 7-7 10.4-10.5 1.9-2 3.8-4.1 4.8-6.7 1.6-4.3.6-7.9-3-10.7-2.9-2.2-6.3-3.3-9.8-4.3-3.3-1-6.6-2.3-9.8-3.6-.1 0-.1-.1-.2-.1-.7-2-2.1-3.4-4.1-4.1-2.6-1-5.4-.8-8.1 0-2.8-.6-5.5-1-8.4-.9-3.2.1-6.1 1.1-8.9 2.3-3.4 1.3-6.6 3-9.1 5.7-2.8 3-4.3 6.6-4.9 10.5-.6 3.4-.8 6.8-1 10.3-.6 7.4-1.8 14.6-4.8 21.4v.1c-.7-.9-1.2-1.9-2-2.6-2.9-4.9-4.8-10.4-5.6-16.1-.4-2.5-.6-4.9-.5-7.5.4-10.1 3.6-19.3 10-27.3 5.7-7 12.7-11.8 21.2-14.6 5.2-1.8 10.7-2.5 16.1-2.2 12.3.8 22.7 5.6 30.8 14.8 6.1 6.6 9.9 14.5 11.2 23.5 1.4 9.4 0 18.4-4.3 26.9-4.9 9.7-12.3 16.7-22.2 21zm14.2-38.8h0s-.2.1-.2.3v-.1c0-.1.1-.1.2-.2zm.5-29.6c-3-3.2-6.5-5.8-9.9-8.6-3-2.4-6.3-4.4-10.1-5.5-3.7-1-7.4-1.4-11-.8-.3 0-.5 0-.5.3s.3.3.5.3c5.6.9 10.8 2.8 16.1 4.8 5.2 2 9.4 4.9 12.6 9.5 2.3 3.2 4.3 6.5 5.8 10 2 4.7 3.8 9.6 4.8 14.8.3 1.8.6 3.4 1 5.2l.4.3c.5-1.9.5-3.8.5-5.6 0-2.2-.3-4.3-.6-6.5-1.5-6.9-4.7-13-9.6-18.2zM48.9 38c-3.3 0-6.1 2.7-6.1 6.1v.1c0 .4 0 .8.1 1.2.1.3.1.5.2.7 0 .1.1.3.1.4.1.2.2.3.3.5s.2.4.3.5c0 .1.1.1.1.2 1.1 1.5 2.8 2.5 4.8 2.5h.1.2c3.3 0 6-2.8 6-6.1 0-1.3-.4-2.6-1.1-3.6-1.2-1.4-3-2.5-5-2.5z"/>
    </g>
    <g id="wallet">
      <path fill="currentColor" d="M19.668 4.108a.5.5 0 0 0-.705.08L14.36 10h-2.551l5.587-7.054a2.5 2.5 0 0 1 3.522-.4l5.147 4.123a2.5 2.5 0 0 1 .522 3.33h-2.614l.907-1.052a.5.5 0 0 0-.066-.717L22.31 6.224 19.342 10h-2.544l3.95-5.026-1.08-.866zM6 7a3 3 0 0 0-3 3v14.5A4.5 4.5 0 0 0 7.5 29h17a4.5 4.5 0 0 0 4.5-4.5v-9a4.5 4.5 0 0 0-4.5-4.5H6a1 1 0 1 1 0-2h4.58l1.596-2H6zm15 12h3a1 1 0 1 1 0 2h-3a1 1 0 1 1 0-2z"/>
    </g>
    <g id="eth">
      <path fill="currentColor" d="M11.944 17.97L4.58 13.62 11.943 24l7.37-10.38-7.372 4.35h.003zM12.056 0L4.69 12.223l7.365 4.354 7.365-4.35L12.056 0z"/>
    </g>
    <g id="sol">
      <path fill="currentColor" d="M16 0c8.837 0 16 7.163 16 16s-7.163 16-16 16S0 24.837 0 16 7.163 0 16 0zm8.706 19.517H10.34a.59.59 0 00-.415.17l-2.838 2.815a.291.291 0 00.207.498H21.66a.59.59 0 00.415-.17l2.838-2.816a.291.291 0 00-.207-.497zm-3.046-5.292H7.294l-.068.007a.291.291 0 00-.14.49l2.84 2.816.07.06c.1.07.22.11.344.11h14.366l.068-.007a.291.291 0 00.14-.49l-2.84-2.816-.07-.06a.59.59 0 00-.344-.11zM24.706 9H10.34a.59.59 0 00-.415.17l-2.838 2.816a.291.291 0 00.207.497H21.66a.59.59 0 00.415-.17l2.838-2.815A.291.291 0 0024.706 9z"/>
    </g>
    <g id="swap">
      <path fill="none" stroke="currentColor" stroke-linecap="round" stroke-linejoin="round" stroke-width=".85" d="M9.019 9A6.5 6.5 0 1 1 15 14.981M8.5 22a6.5 6.5 0 1 1 0-13 6.5 6.5 0 0 1 0 13zM22 17a3 3 0 0 1-3 3h-2m0 0l2-2m-2 2l2 2M2 7a3 3 0 0 1 3-3h2m0 0L5 6m2-2L5 2"/>
    </g>
    <g id="swap-nati-eth">
      <use href="#swap" />
      <use transform="scale(.45)" y="7.5" x="22" href="#eth" />
      <use transform="scale(.01)" y="940" x="290" href="#logo-sigle" />
    </g>
    <g id="swap-nati-sol">
      <use href="#swap" />
      <use transform="scale(.45)" y="7.5" x="22" href="#sol" />
      <use transform="scale(.01)" y="940" x="290" href="#logo-sigle" />
    </g>
     <g id="swap-nati-verus">
      <use href="#swap" />
      <use transform="scale(.45)" y="7.5" x="22" href="#verus" />
      <use transform="scale(.01)" y="940" x="290" href="#logo-sigle" />
    </g>
    <g id="calendar">
      <path fill="none" stroke="currentColor" stroke-width="2" d="M2 12c0-3.771 0-5.657 1.172-6.828S6.229 4 10 4h4c3.771 0 5.657 0 6.828 1.172S22 8.229 22 12v2c0 3.771 0 5.657-1.172 6.828S17.771 22 14 22h-4c-3.771 0-5.657 0-6.828-1.172S2 17.771 2 14v-2z"/>
      <path fill="none" stroke="currentColor" stroke-width="2" stroke-linecap="round" d="M7 4V2.5M17 4V2.5M2.5 9h19"/>
    </g>
    <g id="dexscreener">
      <circle cx="12" cy="12" r="12" fill="currentColor"/>
      <text x="12" y="16" font-size="14" text-anchor="middle" fill="white" font-family="Arial" font-weight="bold">S</text>
    </g>
  </defs>
</svg>