<?xml version="1.0" encoding="iso-8859-1"?>
<!-- Uploaded to: SVG Repo, www.svgrepo.com, Generator: SVG Repo Mixer Tools -->
<!DOCTYPE svg PUBLIC "-//W3C//DTD SVG 1.1//EN" "http://www.w3.org/Graphics/SVG/1.1/DTD/svg11.dtd">
<svg fill="#fff" height="800px" width="800px" version="1.1" id="Capa_1" xmlns="http://www.w3.org/2000/svg" xmlns:xlink="http://www.w3.org/1999/xlink" 
	 viewBox="0 0 324.876 324.876" xml:space="preserve">
<g>
	<path d="M56.938,182.438V78.222c0-5.212,4.906-9.784,10.499-9.784h154.501v16.883c0,6.132,3.768,10.416,9.161,10.416
		c2.066,0,4.157-0.649,6.212-1.93l59.314-36.936c3.507-2.185,5.52-5.471,5.52-9.016c0-3.537-2.003-6.813-5.497-8.99L237.312,1.93
		C235.256,0.649,233.166,0,231.1,0c-5.395,0-9.162,4.283-9.162,10.415v18.023H67.437c-27.845,0-50.499,22.333-50.499,49.784v104.216
		c0,11.046,8.954,20,20,20S56.938,193.484,56.938,182.438z"/>
	<path d="M287.938,122.438c-11.046,0-20,8.954-20,20v104.216c0,5.304-4.693,9.784-10.248,9.784H102.938v-16.883
		c0-7.156-4.699-10.416-9.064-10.416c-2.048,0-4.129,0.65-6.185,1.931l-59.283,36.936c-3.498,2.178-5.503,5.458-5.503,8.997
		c0,3.542,2.009,6.826,5.511,9.008l59.275,36.936c2.056,1.281,4.136,1.93,6.184,1.93c4.366,0,9.064-3.259,9.064-10.415v-18.023
		H257.69c27.707,0,50.248-22.333,50.248-49.784V142.438C307.938,131.392,298.984,122.438,287.938,122.438z"/>
</g>
</svg>